# xmcd
#
# Track frame offsets:
#	150
#	9477
#	29919
#	49922
#	74575
#	92805
#	108442
#	126370
#	148672
#	163905
#	193095
#	208200
#	218425
#	235905
#	251620
#	265150
#	284790
#	296632
#	316617
#
# Disc length: 4476
#
# Revision: 2
# Processed by: cddbd v1.5.1PL0 Copyright (c) Steve Scherf et al.
# Submitted via: CDCOPY 4.900
# Normalized: r1:DSETVAR1,TDELIM( - )
#
DISCID=34117a13
DTITLE=Various Artist - Platinum Spot
DYEAR=1900
DGENRE=
TTITLE0=Beach Boys - Barbara Ann
TTITLE1=Hevia - Busindre reel
TTITLE2=Midge Ure - Breathe
TTITLE3=Spandau Ballet - True
TTITLE4=Shivaree - Goodnight moon
TTITLE5=Las Ketchup - Asereje
TTITLE6=The Knack - My sharona
TTITLE7=Arid - Me and my melody
TTITLE8=2B Funk - Eternity
TTITLE9=Marc Moulin - Into the dark
TTITLE10=Jazzbit - Sing sing sing
TTITLE11=Marianne Faithfull - Love and money
TTITLE12=Lene Marlin - Sitting down here
TTITLE13=EMF - Unbelieveble
TTITLE14=Kc and The Sunshine Band - That's the way (I like it)
TTITLE15=Echoes of sound - Need somebody (who needs me)
TTITLE16=Chuck Berry - You never can tell
TTITLE17=Nicola Conte - Love me 'till sunday
TTITLE18=Free - All right now
EXTD=
EXTT0=
EXTT1=
EXTT2=
EXTT3=
EXTT4=
EXTT5=
EXTT6=
EXTT7=
EXTT8=
EXTT9=
EXTT10=
EXTT11=
EXTT12=
EXTT13=
EXTT14=
EXTT15=
EXTT16=
EXTT17=
EXTT18=
PLAYORDER=
